<?xml version="1.0" standalone="no"?><!DOCTYPE svg PUBLIC "-//W3C//DTD SVG 1.1//EN" "http://www.w3.org/Graphics/SVG/1.1/DTD/svg11.dtd"><svg t="1771471588823" class="icon" viewBox="0 0 1024 1024" version="1.1" xmlns="http://www.w3.org/2000/svg" p-id="6787" xmlns:xlink="http://www.w3.org/1999/xlink" width="200" height="200"><path d="M963.762605 150.599442H470.373209l-43.591442-87.111442a60.070698 60.070698 0 0 0-53.879069-33.351442H60.237395C27.028837 30.124651 0 57.058233 0 90.183442v750.996837c0 82.82493 60.02307 150.206512 143.062326 150.206512 5.084279 0 7.537116-0.261953 7.537116-0.738233v3.226791h722.82493C956.416 993.875349 1024 926.493767 1024 843.680744V210.360558c0-33.149023-27.052651-59.761116-60.237395-59.761116z m0 693.081302c0 49.675907-40.531349 89.969116-90.35014 89.969116H269.050047c20.122791-30.124651 32.113116-57.558326 32.113116-92.469581V542.124651h662.599442v301.556093zM240.937674 481.887256v359.293023c0 49.711628-40.531349 90.112-90.350139 90.112s-90.362047-40.412279-90.362047-90.112V90.362047h312.67721l43.591442 87.111441a60.094512 60.094512 0 0 0 53.879069 33.351442h493.389396v271.062326H240.937674z m0 0" p-id="6788"></path></svg>