<svg t="1771924798722" class="icon" viewBox="0 0 1024 1024" version="1.1" xmlns="http://www.w3.org/2000/svg" p-id="5224" width="200" height="200"><path d="M825.9 192H383.7c-1.4-16.5-8.5-31.9-20.4-43.7-13.3-13.3-31-20.7-49.9-20.7H199.3c-38.9 0-70.5 31.6-70.5 70.5v627.3c0 38.9 31.6 70.5 70.5 70.5h626.5c38.9 0 70.5-31.6 70.5-70.5V262.5c0.1-38.9-31.5-70.5-70.4-70.5z m-626.6-0.4h114.1c1.7 0 3.4 0.7 4.6 1.9 1.2 1.2 1.9 2.9 1.9 4.6V256h505.9c3.6 0 6.5 2.9 6.5 6.5V352H192.8V198.1c0-3.6 2.9-6.5 6.5-6.5zM825.9 832H199.3c-3.6 0-6.5-2.9-6.5-6.5V416h639.6v409.5c0 3.6-2.9 6.5-6.5 6.5z" p-id="5225" fill="#13227a"></path></svg>